<svg id="e82Xrk3vdZn1" xmlns="http://www.w3.org/2000/svg" xmlns:xlink="http://www.w3.org/1999/xlink" viewBox="0 0 24 24" shape-rendering="geometricPrecision" text-rendering="geometricPrecision" width="24" height="24"><path d="M8,3C5.239,3,3,5.239,3,8v8c0,2.761,2.239,5,5,5h8c2.761,0,5-2.239,5-5v-8c0-2.761-2.239-5-5-5h-8ZM18,5c.552,0,1,.448,1,1s-.448,1-1,1-1-.448-1-1s.448-1,1-1ZM12,7c2.761,0,5,2.239,5,5s-2.239,5-5,5-5-2.239-5-5s2.239-5,5-5Zm0,2c-1.656854,0-3,1.343146-3,3s1.343146,3,3,3s3-1.343146,3-3-1.343146-3-3-3Z" fill="#fff"/></svg>
