<svg id="eRAi1noJ2Lr1" xmlns="http://www.w3.org/2000/svg" xmlns:xlink="http://www.w3.org/1999/xlink" viewBox="0 0 24 24" shape-rendering="geometricPrecision" text-rendering="geometricPrecision" width="24" height="24"><path d="M19,3L5,3C3.895,3,3,3.895,3,5v14c0,1.105.895,2,2,2h14c1.105,0,2-.895,2-2v-14c0-1.105-.895-2-2-2ZM9,17h-2.523v-7L9,10v7ZM7.694,8.717c-.771,0-1.286-.514-1.286-1.2s.514-1.2,1.371-1.2c.771,0,1.286.514,1.286,1.2s-.514,1.2-1.371,1.2ZM18,17h-2.442v-3.826c0-1.058-.651-1.302-.895-1.302s-1.058.163-1.058,1.302c0,.163,0,3.826,0,3.826h-2.523v-7h2.523v.977c.325-.57.976-.977,2.197-.977s2.198.977,2.198,3.174L18,17Z" fill="#fff"/></svg>
