<svg id="ePKX0vQCBhD1" xmlns="http://www.w3.org/2000/svg" xmlns:xlink="http://www.w3.org/1999/xlink" viewBox="0 0 24 24" shape-rendering="geometricPrecision" text-rendering="geometricPrecision" width="24" height="24"><path d="M20.302734,2.984375c-.288965.01257-.554151.09568-.787109.1875-.215218.084759-.988085.409598-2.21875.925781s-2.861399,1.200579-4.599609,1.931641C9.220845,7.491421,5.314238,9.136126,3.3125,9.978516c-.068741.02864-.347915.114105-.65625.349609-.30905.236051-.652344.748337-.652344,1.308594c0,.451952.225614.912247.498047,1.175781s.548537.386744.779297.478516v-.001954c.780028.310765,3.109444,1.242876,3.664063,1.464844.196729.589527,1.041277,3.113372,1.242187,3.748047h-.001953c.142012.449209.280432.74196.472656.986328.096112.122184.210837.232903.351563.320313.053994.03354.113779.059554.173828.083984.008368.003553.016993.004434.02539.007813l-.023437-.00586c.017411.007.033037.017328.050781.023438.028915.009957.048959.00963.087891.017578.137004.042147.27376.070312.40039.070312.543611,0,.876953-.294922.876953-.294921l.021485-.015626l2.347656-1.986328l2.875,2.660157c.052514.074148.463901.630859,1.416016.630859.568125,0,1.017306-.281209,1.304687-.576172s.466398-.596768.546875-1.005859l.001953-.001953c.06418-.330182,2.816407-14.150391,2.816407-14.150391l-.00586.023438c.08566-.382346.110954-.7521.009766-1.128907s-.374276-.744531-.703125-.9375-.640723-.250851-.929688-.238281Zm-.394531,2.189453c-.108761.54603-2.574193,12.932049-2.726562,13.708984l-4.152344-3.841796-2.806641,2.373046L11,14.375c0,0,5.362547-5.428141,5.685547-5.744141.26-.253.314453-.341687.314453-.429687C17,8.084172,16.939781,8,16.800781,8c-.125,0-.294765.119781-.384765.175781-1.143648.713004-6.014733,3.488904-8.410157,4.851563-.144157-.057804-2.308463-.926886-3.474609-1.392578c2.074265-.872996,5.629906-2.368958,8.941406-3.761719c1.737915-.730938,3.368166-1.415949,4.597656-1.931641c1.037846-.435308,1.579226-.660702,1.837891-.767578ZM17.152344,19.025391c0,0,.001953,0,.001953,0-.000045.00023-.001853.005559-.001953.005859.001271-.006461-.000954-.0008,0-.005859Z" fill="#fff"/></svg>
