<svg id="e53cxvwRIy91" xmlns="http://www.w3.org/2000/svg" xmlns:xlink="http://www.w3.org/1999/xlink" viewBox="0 0 300 300" shape-rendering="geometricPrecision" text-rendering="geometricPrecision" width="300" height="300"><path d="M150,68.552441C104.138926,68.136273,65.641909,110.567236,68.552441,150c-.135968,40.980958,38.134726,83.976112,81.447558,81.447558L150,68.552441Z" transform="matrix(1.520692 0 0 1.520692-77.869759-78.103796)" fill="#fff" stroke-width="0.6"/><path d="M150,68.552441C104.138926,68.136273,65.641909,110.567236,68.552441,150c-.135968,40.980958,38.134726,83.976112,81.447558,81.447558L150,68.552441Z" transform="matrix(-1.520692 0 0 1.520692 377.869759-78.265387)" stroke-width="0.6"/><ellipse rx="81.447559" ry="81.447559" transform="matrix(1.520692 0 0 1.520692 150 150)" fill="none" stroke="#fff" stroke-width="10"/><line x1="0" y1="-81.447559" x2="0" y2="81.447559" transform="matrix(1.520692 0 0 1.520692 150 150)" fill="none" stroke="#fff" stroke-width="10"/></svg>
